<svg width="128" height="132" viewBox="0 0 128 132" fill="none" xmlns="http://www.w3.org/2000/svg">
<circle cx="64.921" cy="67.548" r="42.2159" fill="url(#paint0_radial_1097_2800)"/>
<mask id="mask0_1097_2800" style="mask-type:alpha" maskUnits="userSpaceOnUse" x="22" y="25" width="86" height="85">
<circle cx="64.921" cy="67.548" r="42.2159" fill="#FF4A22"/>
</mask>
<g mask="url(#mask0_1097_2800)">
<g filter="url(#filter0_f_1097_2800)">
<path d="M61.7554 71.7696C88.9847 94.5662 58.2635 113.986 34.9483 113.986C11.6331 113.986 -7.26758 95.0849 -7.26758 71.7696C-7.26758 48.4544 11.6331 29.5537 34.9483 29.5537C58.2635 29.5537 47.3844 59.7381 61.7554 71.7696Z" fill="url(#paint1_linear_1097_2800)"/>
</g>
<g filter="url(#filter1_f_1097_2800)">
<path d="M146.589 86.546C146.589 109.861 76.1843 134.461 52.8691 134.461C29.5539 134.461 58.1521 112.931 62.1568 86.546C65.7451 62.9051 81.0575 44.3301 104.373 44.3301C127.688 44.3301 146.589 63.2308 146.589 86.546Z" fill="url(#paint2_linear_1097_2800)"/>
</g>
</g>
<g filter="url(#filter2_f_1097_2800)">
<path d="M46.3958 35.359C62.0443 26.3244 82.0539 31.6859 91.0885 47.3344C70.5239 38.7337 61.8682 41.0501 52.7282 46.3271C43.5882 51.604 36.7962 55.0378 34.4204 80.0518C25.3858 64.4033 30.7473 44.3937 46.3958 35.359Z" fill="url(#paint3_linear_1097_2800)"/>
</g>
<g filter="url(#filter3_f_1097_2800)">
<path d="M87.9722 91.865C75.1952 104.642 54.4798 104.642 41.7029 91.865C63.7927 94.8501 71.554 90.3725 79.0168 82.9097C86.4796 75.4469 92.1514 70.3722 87.9722 45.5957C100.749 58.3726 100.749 79.0881 87.9722 91.865Z" fill="url(#paint4_linear_1097_2800)"/>
</g>
<path d="M65 52C56.735 52 50 58.735 50 67C50 75.265 56.735 82 65 82C73.265 82 80 75.265 80 67C80 58.735 73.265 52 65 52ZM72.17 63.55L63.665 72.055C63.455 72.265 63.17 72.385 62.87 72.385C62.57 72.385 62.285 72.265 62.075 72.055L57.83 67.81C57.395 67.375 57.395 66.655 57.83 66.22C58.265 65.785 58.985 65.785 59.42 66.22L62.87 69.67L70.58 61.96C71.015 61.525 71.735 61.525 72.17 61.96C72.605 62.395 72.605 63.1 72.17 63.55Z" fill="white"/>
<defs>
<filter id="filter0_f_1097_2800" x="-37.2676" y="-0.446289" width="139.701" height="144.432" filterUnits="userSpaceOnUse" color-interpolation-filters="sRGB">
<feFlood flood-opacity="0" result="BackgroundImageFix"/>
<feBlend mode="normal" in="SourceGraphic" in2="BackgroundImageFix" result="shape"/>
<feGaussianBlur stdDeviation="15" result="effect1_foregroundBlur_1097_2800"/>
</filter>
<filter id="filter1_f_1097_2800" x="13.8135" y="14.3301" width="162.775" height="150.131" filterUnits="userSpaceOnUse" color-interpolation-filters="sRGB">
<feFlood flood-opacity="0" result="BackgroundImageFix"/>
<feBlend mode="normal" in="SourceGraphic" in2="BackgroundImageFix" result="shape"/>
<feGaussianBlur stdDeviation="15" result="effect1_foregroundBlur_1097_2800"/>
</filter>
<filter id="filter2_f_1097_2800" x="0.0317383" y="0.970703" width="121.057" height="109.081" filterUnits="userSpaceOnUse" color-interpolation-filters="sRGB">
<feFlood flood-opacity="0" result="BackgroundImageFix"/>
<feBlend mode="normal" in="SourceGraphic" in2="BackgroundImageFix" result="shape"/>
<feGaussianBlur stdDeviation="15" result="effect1_foregroundBlur_1097_2800"/>
</filter>
<filter id="filter3_f_1097_2800" x="11.7026" y="15.5957" width="115.852" height="115.852" filterUnits="userSpaceOnUse" color-interpolation-filters="sRGB">
<feFlood flood-opacity="0" result="BackgroundImageFix"/>
<feBlend mode="normal" in="SourceGraphic" in2="BackgroundImageFix" result="shape"/>
<feGaussianBlur stdDeviation="15" result="effect1_foregroundBlur_1097_2800"/>
</filter>
<radialGradient id="paint0_radial_1097_2800" cx="0" cy="0" r="1" gradientUnits="userSpaceOnUse" gradientTransform="translate(42.3355 101.743) rotate(-54.5463) scale(83.6975)">
<stop offset="0.240275" stop-color="#6AED87"/>
<stop offset="1" stop-color="#47FFF4" stop-opacity="0.44"/>
</radialGradient>
<linearGradient id="paint1_linear_1097_2800" x1="30.7268" y1="54.0389" x2="72.5205" y2="123.273" gradientUnits="userSpaceOnUse">
<stop stop-color="#12FF8D"/>
<stop offset="1" stop-color="#FF0000" stop-opacity="0"/>
</linearGradient>
<linearGradient id="paint2_linear_1097_2800" x1="97.4277" y1="87.1792" x2="102.283" y2="46.652" gradientUnits="userSpaceOnUse">
<stop stop-color="#17ABFE"/>
<stop offset="1" stop-color="#37FF4B" stop-opacity="0"/>
</linearGradient>
<linearGradient id="paint3_linear_1097_2800" x1="39.1697" y1="59.7387" x2="91.0953" y2="39.8973" gradientUnits="userSpaceOnUse">
<stop stop-color="white"/>
<stop offset="1" stop-color="white" stop-opacity="0"/>
</linearGradient>
<linearGradient id="paint4_linear_1097_2800" x1="94.4728" y1="80.2128" x2="68.2989" y2="103.22" gradientUnits="userSpaceOnUse">
<stop stop-color="#71FFA1"/>
<stop offset="1" stop-color="#72F7FF" stop-opacity="0"/>
</linearGradient>
</defs>
</svg>
