<svg width="20" height="20" viewBox="0 0 20 20" fill="none" xmlns="http://www.w3.org/2000/svg">
  <path fillRule="evenodd" clipRule="evenodd"
    d="M8.75 6.25H11.25C12.2446 6.25 13.1984 5.85491 13.9017 5.15165C14.6049 4.44839 15 3.49456 15 2.5C15.663 2.5 16.2989 2.76339 16.7678 3.23223C17.2366 3.70107 17.5 4.33696 17.5 5V17.5C17.5 18.163 17.2366 18.7989 16.7678 19.2678C16.2989 19.7366 15.663 20 15 20H5C4.33696 20 3.70107 19.7366 3.23223 19.2678C2.76339 18.7989 2.5 18.163 2.5 17.5V5C2.5 4.33696 2.76339 3.70107 3.23223 3.23223C3.70107 2.76339 4.33696 2.5 5 2.5C5 3.49456 5.39509 4.44839 6.09835 5.15165C6.80161 5.85491 7.75544 6.25 8.75 6.25ZM7.5 2.5C7.5 1.83696 7.76339 1.20107 8.23223 0.732233C8.70107 0.263392 9.33696 0 10 0C10.663 0 11.2989 0.263392 11.7678 0.732233C12.2366 1.20107 12.5 1.83696 12.5 2.5C12.5 2.83152 12.3683 3.14946 12.1339 3.38388C11.8995 3.6183 11.5815 3.75 11.25 3.75H8.75C8.41848 3.75 8.10054 3.6183 7.86612 3.38388C7.6317 3.14946 7.5 2.83152 7.5 2.5Z" />
</svg>