<svg xmlns="http://www.w3.org/2000/svg" width="18" height="18" viewBox="0 0 18 18">
  <path
    d="M9.00008 0.666992C4.40841 0.666992 0.666748 4.40866 0.666748 9.00033C0.666748 13.592 4.40841 17.3337 9.00008 17.3337C13.5917 17.3337 17.3334 13.592 17.3334 9.00033C17.3334 4.40866 13.5917 0.666992 9.00008 0.666992ZM12.6251 11.9753C12.5084 12.1753 12.3001 12.2837 12.0834 12.2837C11.9751 12.2837 11.8667 12.2587 11.7667 12.192L9.18342 10.6503C8.54175 10.267 8.06675 9.42533 8.06675 8.68366V5.26699C8.06675 4.92533 8.35008 4.64199 8.69175 4.64199C9.03341 4.64199 9.31675 4.92533 9.31675 5.26699V8.68366C9.31675 8.98366 9.56675 9.42533 9.82508 9.57533L12.4084 11.117C12.7084 11.292 12.8084 11.6753 12.6251 11.9753Z" />
</svg>