<svg width="24" height="24" viewBox="0 0 24 24" fill="none" xmlns="http://www.w3.org/2000/svg">
  <circle cx="12" cy="12" r="12" fill="white" fill-opacity="0.1" />
  <path fill-rule="evenodd" clip-rule="evenodd"
    d="M15.5352 9.17101C15.7305 8.97575 15.7305 8.65917 15.5352 8.4639C15.3399 8.26864 15.0233 8.26864 14.8281 8.4639L12 11.292L9.17191 8.4639C8.97665 8.26864 8.66007 8.26864 8.46481 8.4639C8.26954 8.65917 8.26954 8.97575 8.46481 9.17101L11.2929 11.9991L8.46413 14.8279C8.26886 15.0231 8.26886 15.3397 8.46413 15.535C8.65939 15.7302 8.97597 15.7302 9.17123 15.535L12 12.7062L14.8288 15.535C15.024 15.7302 15.3406 15.7302 15.5359 15.535C15.7311 15.3397 15.7311 15.0231 15.5359 14.8279L12.7071 11.9991L15.5352 9.17101Z"
    fill="white" fill-opacity="0.6" />
</svg>