<svg xmlns="http://www.w3.org/2000/svg" width="18" height="18" viewBox="0 0 18 18">
  <path
    d="M8.97493 0.666992C4.37493 0.666992 0.641602 4.40033 0.641602 9.00033C0.641602 13.6003 4.37493 17.3337 8.97493 17.3337C13.5749 17.3337 17.3083 13.6003 17.3083 9.00033C17.3083 4.40033 13.5833 0.666992 8.97493 0.666992ZM11.4749 10.8587L9.05827 12.2503C8.75827 12.4253 8.42493 12.5087 8.09993 12.5087C7.7666 12.5087 7.4416 12.4253 7.1416 12.2503C6.5416 11.9003 6.18327 11.2837 6.18327 10.5837V7.79199C6.18327 7.10033 6.5416 6.47533 7.1416 6.12533C7.7416 5.77533 8.45827 5.77533 9.0666 6.12533L11.4833 7.51699C12.0833 7.86699 12.4416 8.48366 12.4416 9.18366C12.4416 9.88366 12.0833 10.5087 11.4749 10.8587Z" />
</svg>