<svg width="24" height="24" viewBox="0 0 24 24" fill="none" xmlns="http://www.w3.org/2000/svg">
  <path
    d="M6.44302 8.7816H8.87185V15.9868C8.87185 16.7178 9.46457 17.3097 10.1948 17.3097H13.806C14.5363 17.3097 15.129 16.7178 15.129 15.9868V8.7816H17.557C17.9593 8.7816 18.3209 8.53941 18.4755 8.1677C18.6286 7.7975 18.5434 7.36953 18.2592 7.08533L12.7025 1.52791C12.3144 1.1406 11.6857 1.1406 11.2967 1.52791L5.74092 7.08533C5.45667 7.36953 5.3715 7.79677 5.5254 8.1677C5.67997 8.53868 6.04077 8.7816 6.44302 8.7816Z"
    fill="white" />
  <path
    d="M22.8066 11.4821C22.1482 11.4821 21.6141 12.0163 21.6141 12.6754V17.665C21.6141 19.1597 20.3973 20.3757 18.9025 20.3757H5.09736C3.60258 20.3757 2.38662 19.1597 2.38662 17.665V12.6754C2.38662 12.0163 1.85167 11.4821 1.19331 11.4821C0.534164 11.4821 0 12.0163 0 12.6754V17.6651C0 20.4757 2.28663 22.7624 5.09736 22.7624H18.9025C21.7133 22.7624 24 20.4757 24 17.6651V12.6754C24 12.0163 23.4658 11.4821 22.8066 11.4821Z"
    fill="white" />
</svg>