<svg width="16" height="16" viewBox="0 0 16 16" fill="none" xmlns="http://www.w3.org/2000/svg">
<path d="M3.01656 12.4156L2.77714 11.9767C2.73348 12.0005 2.68214 12.006 2.63442 11.9919C2.58671 11.9779 2.54652 11.9455 2.5227 11.9018C2.49889 11.8582 2.49339 11.8068 2.50743 11.7591C2.52146 11.7114 2.55388 11.6712 2.59755 11.6474L2.59949 11.6463C3.15908 11.3379 4.40604 10.44 5.66541 9.01663L5.94153 8.70455L5.68433 8.3767C5.65583 8.34036 5.62857 8.30561 5.60117 8.27018C4.46854 6.80077 4.04344 5.82702 4.01581 5.76245C3.99831 5.71737 3.99889 5.66723 4.0175 5.62252C4.03647 5.57696 4.07264 5.54072 4.11815 5.52165C4.16367 5.50258 4.21487 5.50223 4.26064 5.52066C4.30642 5.5391 4.34308 5.57483 4.36268 5.62013L4.36271 5.62011C4.40919 5.72754 4.80369 6.59066 5.77132 7.87467L6.18906 8.429L6.58253 7.85719C7.45308 6.59205 8.01827 5.21674 8.32301 4.35404L8.55847 3.6875H7.85156H1.6875C1.63777 3.6875 1.59008 3.66775 1.55492 3.63258C1.51975 3.59742 1.5 3.54973 1.5 3.5C1.5 3.45027 1.51975 3.40258 1.55492 3.36742C1.59008 3.33225 1.63777 3.3125 1.6875 3.3125H5.3125H5.8125V2.8125V2.1875C5.8125 2.13777 5.83225 2.09008 5.86742 2.05492C5.90258 2.01975 5.95027 2 6 2C6.04973 2 6.09742 2.01975 6.13258 2.05492L6.48614 1.70136L6.13258 2.05492C6.16775 2.09008 6.1875 2.13777 6.1875 2.1875V2.8125V3.3125H6.6875H10.3125C10.3622 3.3125 10.4099 3.33225 10.4451 3.36742C10.4802 3.40258 10.5 3.45027 10.5 3.5C10.5 3.54973 10.4802 3.59742 10.4451 3.63258C10.4099 3.66775 10.3622 3.6875 10.3125 3.6875H9.30406H8.93864L8.82767 4.03567C8.54815 4.91268 7.86631 6.76123 6.67469 8.3745L6.4308 8.70469L6.70718 9.0082C7.05543 9.39065 7.35142 9.67297 7.56386 9.8623C7.67009 9.95697 7.75544 10.0284 7.81603 10.0775C7.84632 10.102 7.87042 10.121 7.88782 10.1345L7.90879 10.1506C7.91118 10.1524 7.91333 10.154 7.91487 10.1551C7.91669 10.1565 7.91766 10.1572 7.91719 10.1569L7.91716 10.1569L7.92332 10.1614C7.96351 10.1906 7.99047 10.2345 7.99828 10.2836C8.00566 10.3299 7.9954 10.3772 7.96972 10.4162L7.96498 10.4228C7.95052 10.4427 7.93228 10.4596 7.91128 10.4725C7.89028 10.4855 7.86694 10.4941 7.8426 10.498C7.81826 10.5019 7.79339 10.5009 7.76942 10.4952C7.74545 10.4894 7.72285 10.479 7.7029 10.4645L7.70292 10.4645L7.69844 10.4613L7.6983 10.4612C7.69381 10.4579 7.57942 10.3745 7.38246 10.2027C7.18192 10.0277 6.89733 9.76258 6.55768 9.39941L6.18613 9.00212L5.82148 9.40576C4.21184 11.1875 2.80997 11.9587 2.77685 11.9768L3.01656 12.4156ZM3.01656 12.4156C3.07938 12.3813 4.34067 11.6831 5.85107 10.1078M3.01656 12.4156C2.85648 12.5029 2.66827 12.5231 2.49333 12.4716C2.3184 12.4202 2.17106 12.3013 2.08375 12.1412C1.99644 11.9812 1.97629 11.793 2.02775 11.618C2.0792 11.4431 2.19804 11.2958 2.35813 11.2084C2.86156 10.9309 4.06469 10.0712 5.29094 8.68531L5.29088 8.68524C5.26246 8.64902 5.23404 8.61279 5.20531 8.57563C4.00813 7.0225 3.57156 5.99594 3.55344 5.95281L5.85107 10.1078M5.85107 10.1078C5.84318 10.0994 5.83526 10.091 5.82732 10.0825L6.1925 9.74094L6.56352 10.0761C6.55612 10.0843 6.54872 10.0925 6.54133 10.1006L5.85107 10.1078ZM14.3125 14.5L14.3124 14C14.2753 14 14.239 13.989 14.2081 13.9683C14.1773 13.9477 14.1533 13.9183 14.1391 13.884L14.139 13.8839L13.5662 12.4967L13.4385 12.1875H13.1041H9.89563H9.56114L9.43348 12.4967L8.86066 13.8839L8.85971 13.8862C8.8504 13.909 8.83666 13.9299 8.81928 13.9474C8.8019 13.965 8.78122 13.9789 8.75844 13.9884C8.73565 13.998 8.71121 14.0029 8.6865 14.003C8.6618 14.003 8.63733 13.9982 8.6145 13.9888C8.59167 13.9794 8.57093 13.9655 8.55346 13.948C8.536 13.9306 8.52216 13.9098 8.51273 13.887C8.50331 13.8642 8.49849 13.8397 8.49855 13.815C8.49861 13.7903 8.50356 13.7659 8.5131 13.7431L8.51404 13.7408L11.3265 6.92831C11.3265 6.92831 11.3265 6.92831 11.3265 6.9283C11.3407 6.89399 11.3647 6.86466 11.3956 6.84403C11.4264 6.82338 11.4627 6.81237 11.4998 6.81237C11.537 6.81237 11.5732 6.82338 11.6041 6.84402L11.8821 6.42845L11.6041 6.84403C11.635 6.86467 11.659 6.894 11.6732 6.92831L14.2005 13.05H14.2L14.4854 13.7409C14.4971 13.7694 14.5017 13.8003 14.4987 13.831C14.4956 13.8616 14.4851 13.8911 14.468 13.9167C14.4509 13.9423 14.4277 13.9633 14.4005 13.9778C14.3733 13.9924 14.343 14 14.3122 14L14.3125 14.5ZM14.3125 14.5C14.4255 14.4999 14.5367 14.472 14.6363 14.4188C14.7359 14.3655 14.8209 14.2885 14.8837 14.1946L13.1041 12.6875L13.6769 14.0747C13.7288 14.2006 13.8169 14.3082 13.9301 14.3839C14.0433 14.4596 14.1763 14.5 14.3125 14.5ZM10.0013 11.1217L9.7161 11.8125H10.4634H12.5366H13.2839L12.9987 11.1217L11.9622 8.61077L11.5 7.49123L11.0378 8.61077L10.0013 11.1217Z" fill="#F82930" stroke="white"/>
</svg>
