<svg width="24" height="24" viewBox="0 0 24 24" fill="none" xmlns="http://www.w3.org/2000/svg">
  <path
    d="M12.0001 16.615C13.2695 16.615 14.3558 16.1631 15.2597 15.2596C16.1633 14.3562 16.6152 13.2693 16.6152 12V4.61551C16.6152 3.34621 16.1637 2.25979 15.2597 1.35588C14.3558 0.45218 13.2695 0 12.0001 0C10.7309 0 9.6444 0.45218 8.74055 1.35588C7.83664 2.25964 7.38477 3.34621 7.38477 4.61551V12C7.38477 13.2692 7.83684 14.3562 8.74055 15.2596C9.64425 16.1631 10.7309 16.615 12.0001 16.615Z"
    fill="white" />
  <path
    d="M20.0325 9.50458C19.8504 9.32185 19.6335 9.23047 19.3835 9.23047C19.1338 9.23047 18.9175 9.32185 18.7345 9.50458C18.552 9.68725 18.4607 9.90356 18.4607 10.1535V11.9997C18.4607 13.7786 17.8283 15.3002 16.5639 16.5646C15.2998 17.829 13.7781 18.4612 11.9991 18.4612C10.2202 18.4612 8.69863 17.829 7.43413 16.5646C6.16978 15.3005 5.53766 13.7787 5.53766 11.9997V10.1535C5.53766 9.90356 5.44628 9.68725 5.26366 9.50458C5.08093 9.32185 4.86482 9.23047 4.61466 9.23047C4.3645 9.23047 4.14813 9.32185 3.96551 9.50458C3.78274 9.68725 3.69141 9.90356 3.69141 10.1535V11.9997C3.69141 14.1247 4.40067 15.9734 5.81879 17.5453C7.23696 19.1173 8.98935 20.0187 11.076 20.2493V22.1533H7.38376C7.13375 22.1533 6.91744 22.2448 6.73477 22.4276C6.55205 22.6101 6.46066 22.8265 6.46066 23.0765C6.46066 23.3262 6.55205 23.543 6.73477 23.7255C6.91744 23.9081 7.13375 23.9998 7.38376 23.9998H16.6142C16.8642 23.9998 17.0808 23.9082 17.2632 23.7255C17.4461 23.543 17.5376 23.3262 17.5376 23.0765C17.5376 22.8266 17.4461 22.6102 17.2632 22.4276C17.0809 22.2448 16.8642 22.1533 16.6142 22.1533H12.9224V20.2493C15.0087 20.0187 16.761 19.1173 18.1793 17.5453C19.5976 15.9734 20.3071 14.1247 20.3071 11.9997V10.1535C20.3071 9.90361 20.2155 9.68745 20.0325 9.50458Z"
    fill="white" />
</svg>