<svg width="24" height="24" viewBox="0 0 24 24" fill="none" xmlns="http://www.w3.org/2000/svg">
  <path
    d="M10.5 3.75V20.25C10.5 20.8467 10.2629 21.419 9.84099 21.841C9.41903 22.2629 8.84674 22.5 8.25 22.5H6C5.40326 22.5 4.83097 22.2629 4.40901 21.841C3.98705 21.419 3.75 20.8467 3.75 20.25V3.75C3.75 3.15326 3.98705 2.58097 4.40901 2.15901C4.83097 1.73705 5.40326 1.5 6 1.5H8.25C8.84674 1.5 9.41903 1.73705 9.84099 2.15901C10.2629 2.58097 10.5 3.15326 10.5 3.75ZM18 1.5H15.75C15.1533 1.5 14.581 1.73705 14.159 2.15901C13.7371 2.58097 13.5 3.15326 13.5 3.75V20.25C13.5 20.8467 13.7371 21.419 14.159 21.841C14.581 22.2629 15.1533 22.5 15.75 22.5H18C18.5967 22.5 19.169 22.2629 19.591 21.841C20.0129 21.419 20.25 20.8467 20.25 20.25V3.75C20.25 3.15326 20.0129 2.58097 19.591 2.15901C19.169 1.73705 18.5967 1.5 18 1.5Z" />
</svg>