<svg xmlns="http://www.w3.org/2000/svg" width="20" height="20" viewBox="0 0 20 20" fill="none">
  <path
    d="M12.9988 17C12.9198 17.0005 12.8416 16.9844 12.7685 16.9528C12.6955 16.9211 12.629 16.8745 12.5729 16.8155L10.1739 14.2707C10.061 14.1509 9.99755 13.9884 9.99755 13.819C9.99755 13.6496 10.061 13.4871 10.1739 13.3673C10.2869 13.2475 10.44 13.1802 10.5998 13.1802C10.7595 13.1802 10.9126 13.2475 11.0256 13.3673L12.399 14.8306V3.63988C12.399 3.47115 12.4622 3.30934 12.5747 3.19003C12.6872 3.07072 12.8397 3.00369 12.9988 3.00369C13.1578 3.00369 13.3104 3.07072 13.4229 3.19003C13.5353 3.30934 13.5985 3.47115 13.5985 3.63988V14.8306L14.972 13.3673C15.0849 13.2475 15.2381 13.1802 15.3978 13.1802C15.5575 13.1802 15.7107 13.2475 15.8236 13.3673C15.9366 13.4871 16 13.6496 16 13.819C16 13.9884 15.9366 14.1509 15.8236 14.2707L13.4246 16.8155C13.3686 16.8745 13.3021 16.9211 13.229 16.9528C13.156 16.9844 13.0777 17.0005 12.9988 17ZM7.00123 17C6.84216 17 6.68961 16.933 6.57714 16.8137C6.46466 16.6943 6.40147 16.5325 6.40147 16.3638V5.17312L5.02803 6.63637C4.9151 6.75616 4.76192 6.82346 4.60221 6.82346C4.44249 6.82346 4.28932 6.75616 4.17638 6.63637C4.06345 6.51657 4 6.35409 4 6.18467C4 6.01525 4.06345 5.85277 4.17638 5.73297L6.5754 3.18819C6.63116 3.12856 6.69749 3.08123 6.77058 3.04893C6.84366 3.01663 6.92205 3 7.00123 3C7.0804 3 7.15879 3.01663 7.23188 3.04893C7.30496 3.08123 7.3713 3.12856 7.42705 3.18819L9.82607 5.73297C9.93901 5.85277 10.0025 6.01525 10.0025 6.18467C10.0025 6.35409 9.93901 6.51657 9.82607 6.63637C9.71314 6.75616 9.55996 6.82346 9.40025 6.82346C9.24053 6.82346 9.08736 6.75616 8.97442 6.63637L7.60098 5.17312V16.3638C7.60098 16.5325 7.53779 16.6943 7.42532 16.8137C7.31284 16.933 7.16029 17 7.00123 17Z"
    fill="white" />
</svg>