<svg width="32" height="32" stroke-width="2" viewBox="0 0 32 32" stroke="#BABEC3" fill="none"
  xmlns="http://www.w3.org/2000/svg">
  <path
    d="M8.38091 25.3333C5.225 25.3333 2.66663 22.8051 2.66663 19.6863C2.66663 16.5675 5.225 14.0392 8.38091 14.0392C8.75974 14.0392 9.12996 14.0756 9.48817 14.1452M19.1746 10.7029C19.9689 10.4255 20.8237 10.2745 21.7142 10.2745C22.5871 10.2745 23.4257 10.4196 24.2067 10.6866M9.48817 14.1452C9.18271 13.3304 9.01583 12.4492 9.01583 11.5294C9.01583 7.37103 12.427 4 16.6349 4C20.5545 4 23.7828 6.92495 24.2067 10.6866M9.48817 14.1452C10.2407 14.2912 10.9403 14.5832 11.5555 14.9901M24.2067 10.6866C27.1906 11.707 29.3333 14.5082 29.3333 17.8039C29.3333 21.4133 26.7634 24.4294 23.3333 25.163"
    strokeWidth="2" strokeLinecap="round" />
  <path d="M16 21.3333V29.3333M16 21.3333L18.6667 24M16 21.3333L13.3334 24" strokeWidth="2" strokeLinecap="round"
    strokeLinejoin="round" />
</svg>