<?xml version="1.0" standalone="no"?>
<!DOCTYPE svg PUBLIC "-//W3C//DTD SVG 20010904//EN"
 "http://www.w3.org/TR/2001/REC-SVG-20010904/DTD/svg10.dtd">
<svg version="1.0" xmlns="http://www.w3.org/2000/svg"
 width="266.000000pt" height="275.000000pt" viewBox="0 0 266.000000 275.000000"
 preserveAspectRatio="xMidYMid meet">

<g transform="translate(0.000000,275.000000) scale(0.100000,-0.100000)"
fill="#FFFFFF" stroke="none">
<path d="M1175 2515 c-431 -70 -813 -384 -953 -785 -60 -173 -80 -424 -47
-613 49 -275 202 -532 419 -701 199 -155 407 -241 648 -268 261 -29 583 64
808 233 516 389 627 1100 257 1639 -49 71 -185 208 -268 270 -249 185 -579
271 -864 225z m315 -80 c98 -17 135 -26 205 -50 66 -22 195 -87 253 -127 260
-179 408 -402 482 -725 17 -76 15 -312 -3 -408 -58 -296 -223 -545 -475 -714
-112 -75 -246 -130 -415 -170 -66 -16 -315 -13 -399 5 -298 62 -553 231 -717
474 -133 197 -181 361 -181 617 -1 130 3 167 24 251 57 227 133 360 295 522
108 108 179 159 302 218 223 108 425 142 629 107z"/>
<path d="M1150 2385 c-94 -23 -123 -32 -178 -54 -331 -133 -576 -405 -663
-736 -21 -78 -24 -113 -24 -265 0 -152 3 -187 24 -265 46 -174 131 -323 263
-461 43 -44 76 -84 73 -87 -3 -4 -2 -5 1 -2 4 2 40 -19 81 -46 130 -88 252
-142 415 -184 56 -15 94 -17 225 -12 156 5 181 10 358 64 21 7 93 44 160 83
68 40 167 120 229 184 339 355 385 899 110 1316 -44 68 -170 205 -234 255
-122 97 -294 175 -462 210 -86 18 -302 18 -378 0z m406 -90 c250 -63 463 -214
605 -429 101 -153 148 -300 156 -486 12 -298 -80 -537 -287 -740 -307 -302
-736 -374 -1115 -186 -271 134 -452 351 -526 627 -19 71 -23 110 -23 249 -1
184 15 266 79 406 121 267 384 483 679 559 131 34 297 34 432 0z"/>
<path d="M1304 2205 c-19 -29 -11 -61 17 -70 51 -16 89 37 54 75 -24 27 -51
25 -71 -5z"/>
<path d="M1105 2182 c-65 -27 -66 -28 -50 -65 15 -37 15 -37 78 -17 50 15 55
26 37 74 -11 30 -12 30 -65 8z"/>
<path d="M1510 2164 c-13 -39 -9 -46 35 -62 17 -5 38 -13 47 -17 13 -5 21 2
32 30 9 21 16 39 16 41 0 2 -107 44 -115 44 -2 0 -9 -16 -15 -36z"/>
<path d="M862 2078 c-25 -25 -4 -88 29 -88 26 0 49 23 49 48 0 33 -16 52 -45
52 -12 0 -26 -5 -33 -12z"/>
<path d="M1752 2078 c-34 -34 14 -102 56 -79 28 15 35 40 17 67 -17 26 -53 32
-73 12z"/>
<path d="M1300 2046 c-35 -13 -537 -236 -624 -277 -46 -21 -61 -43 -51 -71 4
-9 44 -32 91 -53 52 -23 85 -44 86 -54 1 -9 2 -173 2 -366 1 -383 0 -378 63
-436 57 -54 415 -219 474 -219 59 0 442 175 486 222 51 54 53 71 53 455 l0
358 90 42 c95 44 111 65 72 98 -25 22 -680 316 -699 314 -4 0 -24 -6 -43 -13z
m295 -196 c269 -120 295 -132 295 -140 0 -8 -204 -100 -220 -100 -6 0 -10 -16
-10 -35 0 -28 -4 -35 -20 -35 -17 0 -20 7 -20 44 l0 43 -73 35 c-69 34 -73 37
-74 70 -2 56 -29 97 -79 120 -41 17 -50 18 -87 6 -54 -17 -87 -64 -87 -126 0
-38 5 -50 39 -83 33 -33 45 -39 82 -39 26 0 57 8 77 20 l33 20 60 -30 c40 -21
59 -36 57 -46 -3 -15 -197 -103 -228 -104 -9 0 -83 30 -165 66 -83 36 -203 88
-268 116 -65 28 -116 55 -115 60 2 5 84 45 183 89 320 143 359 159 380 153 11
-4 119 -50 240 -104z m-224 -80 c10 -6 19 -16 19 -22 0 -7 -5 -6 -15 2 -8 7
-22 10 -30 6 -18 -6 -21 -56 -3 -56 6 0 9 -3 6 -6 -12 -12 -48 17 -48 39 0 41
31 58 71 37z m-369 -261 c180 -80 296 -128 321 -134 18 -5 52 5 114 30 124 52
123 52 123 23 0 -32 32 -61 61 -56 30 4 49 41 49 94 0 45 -5 40 98 81 9 4 12
-65 12 -325 0 -324 0 -330 -22 -357 -32 -40 -363 -195 -418 -195 -29 0 -195
71 -333 142 -52 27 -83 50 -92 69 -12 23 -15 87 -15 349 0 176 2 320 5 320 2
0 46 -18 97 -41z"/>
<path d="M1608 1308 c-21 -16 -110 -225 -106 -247 2 -9 15 -17 29 -19 21 -2
29 3 39 27 11 28 17 31 56 31 37 0 46 -4 53 -23 14 -36 38 -52 56 -37 22 18
19 35 -25 151 -36 92 -59 129 -80 129 -3 0 -13 -6 -22 -12z m32 -129 c0 -11
-7 -19 -16 -19 -11 0 -14 5 -10 16 3 9 6 20 6 25 0 6 5 7 10 4 6 -3 10 -15 10
-26z"/>
<path d="M974 1297 c-2 -7 -3 -67 -2 -133 l3 -119 30 0 c29 0 30 2 33 47 l3
47 47 3 c43 3 47 5 47 28 0 23 -4 25 -47 28 -43 3 -48 6 -48 27 0 23 3 24 73
27 69 3 72 4 72 28 0 25 -1 25 -103 28 -78 2 -104 0 -108 -11z"/>
<path d="M1242 1298 c-17 -17 -17 -229 0 -246 18 -18 168 -16 195 3 29 21 37
60 18 98 -10 21 -12 34 -5 41 18 18 11 66 -15 91 -21 22 -33 25 -103 25 -47 0
-83 -5 -90 -12z m147 -62 c17 -20 -10 -38 -51 -34 -25 2 -34 8 -36 26 -3 20 1
22 36 22 22 0 45 -6 51 -14z m6 -116 c0 -11 -13 -16 -47 -18 -43 -3 -48 -1
-48 18 0 19 5 21 48 18 34 -2 47 -7 47 -18z"/>
<path d="M1100 1006 c0 -24 62 -191 78 -209 14 -16 32 -17 161 -15 l146 3 42
85 c24 47 40 93 37 103 -5 15 -24 17 -205 17 -168 0 -201 2 -205 15 -8 19 -54
20 -54 1z m380 -102 c-26 -66 -21 -64 -146 -64 l-115 0 -15 35 c-7 19 -14 39
-14 45 0 6 53 10 150 10 l150 0 -10 -26z"/>
<path d="M726 1941 c-19 -20 -14 -41 8 -41 16 0 46 32 46 48 0 19 -35 14 -54
-7z"/>
<path d="M1900 1947 c0 -19 33 -47 53 -47 23 0 21 16 -3 40 -23 23 -50 26 -50
7z"/>
<path d="M524 1576 c-11 -27 7 -36 72 -36 l64 0 0 -40 0 -39 -67 -3 c-53 -2
-68 -6 -68 -18 0 -10 12 -16 33 -18 20 -2 32 -9 32 -18 0 -8 9 -14 20 -14 11
0 20 6 20 14 0 9 12 16 33 18 l32 3 0 80 0 80 -83 3 c-66 2 -83 0 -88 -12z"/>
<path d="M1995 1577 c-11 -27 0 -272 11 -272 7 0 33 18 59 40 27 22 62 42 79
45 l31 5 0 95 0 95 -88 3 c-66 2 -89 -1 -92 -11z m143 -89 c-3 -48 -5 -53 -28
-56 -14 -2 -35 -13 -47 -25 l-23 -20 0 76 0 77 51 0 50 0 -3 -52z"/>
<path d="M2077 1504 c-14 -14 -7 -35 11 -32 9 2 17 10 17 17 0 16 -18 25 -28
15z"/>
<path d="M530 1510 c-12 -7 -12 -12 -2 -22 9 -9 15 -9 24 0 16 16 -2 34 -22
22z"/>
<path d="M594 1509 c-8 -14 11 -33 25 -25 6 4 11 11 11 16 0 13 -29 20 -36 9z"/>
<path d="M463 1343 c-17 -6 -16 -28 2 -43 10 -8 15 -37 17 -93 l3 -82 99 -3
c64 -2 103 1 112 9 10 8 14 34 14 82 0 51 4 75 16 89 14 14 14 20 4 33 -10 12
-37 15 -134 14 -66 0 -127 -3 -133 -6z m197 -113 l0 -60 -65 0 -65 0 0 60 0
60 65 0 65 0 0 -60z"/>
<path d="M550 1247 c0 -16 31 -47 47 -47 5 0 18 9 28 20 23 25 6 52 -19 31
-10 -8 -16 -9 -21 -1 -9 15 -35 12 -35 -3z"/>
<path d="M2028 1243 c-47 -29 -63 -100 -34 -152 12 -22 11 -29 -11 -64 -13
-21 -22 -45 -19 -53 10 -27 41 -14 64 26 21 36 26 40 63 40 33 0 47 6 75 34
37 37 45 82 23 129 -24 52 -107 73 -161 40z m104 -50 c37 -33 11 -103 -39
-103 -28 0 -63 33 -63 60 0 26 34 60 62 60 12 0 30 -7 40 -17z"/>
<path d="M2060 1155 c0 -10 10 -15 30 -15 20 0 30 5 30 15 0 10 -10 15 -30 15
-20 0 -30 -5 -30 -15z"/>
<path d="M575 1045 c-43 -36 -43 -77 2 -111 32 -24 36 -25 52 -10 10 9 23 16
29 16 7 0 13 3 13 8 10 65 8 70 -26 96 -18 14 -35 26 -37 26 -2 -1 -16 -12
-33 -25z m53 -49 c6 -27 -14 -42 -32 -27 -12 10 -13 18 -5 33 12 22 32 19 37
-6z"/>
<path d="M2060 930 c0 -13 7 -20 20 -20 13 0 20 7 20 20 0 13 -7 20 -20 20
-13 0 -20 -7 -20 -20z"/>
<path d="M661 813 c0 -26 57 -69 72 -54 8 8 3 19 -18 41 -32 34 -55 39 -54 13z"/>
<path d="M1966 801 c-26 -27 -28 -51 -5 -51 13 0 58 52 59 68 0 21 -25 13 -54
-17z"/>
<path d="M819 694 c-10 -12 -10 -20 -1 -35 13 -21 3 -26 -16 -7 -17 17 -25 3
-12 -21 13 -25 58 -28 67 -5 3 9 1 25 -6 35 -7 12 -7 19 -1 19 5 0 10 -4 10
-10 0 -5 7 -10 15 -10 19 0 19 14 -1 34 -20 20 -38 20 -55 0z"/>
<path d="M1796 681 c-3 -4 9 -25 27 -45 l32 -37 29 24 c18 15 26 28 22 36 -6
9 -12 9 -25 -3 -16 -15 -20 -14 -41 9 -25 26 -35 30 -44 16z"/>
<path d="M969 604 c-10 -12 -10 -20 -1 -35 16 -26 15 -34 -3 -19 -11 9 -19 10
-26 3 -8 -8 -4 -16 15 -28 45 -30 85 7 51 45 -10 11 -13 20 -7 20 6 0 14 -5
17 -10 4 -6 11 -8 16 -4 12 7 -18 44 -36 44 -7 0 -18 -7 -26 -16z"/>
<path d="M1657 603 c-6 -5 23 -63 43 -86 9 -10 70 19 70 33 0 14 -18 21 -25
10 -12 -19 -34 -10 -50 20 -15 30 -26 36 -38 23z"/>
<path d="M1127 553 c-13 -21 -17 -92 -7 -98 7 -4 14 2 17 15 4 13 11 19 20 16
8 -3 16 -6 18 -6 2 0 1 -9 -2 -20 -4 -13 0 -20 10 -20 9 0 17 14 21 36 4 19
10 42 13 50 3 8 -1 14 -11 14 -9 0 -16 -7 -16 -16 0 -24 -35 -12 -38 14 -3 22
-16 29 -25 15z"/>
<path d="M1502 538 c-28 -28 -2 -88 38 -88 40 0 66 60 38 88 -7 7 -24 12 -38
12 -14 0 -31 -5 -38 -12z m56 -36 c3 -17 -2 -22 -17 -22 -14 0 -21 6 -21 18 0
38 33 41 38 4z"/>
<path d="M1312 508 c-37 -37 15 -102 63 -80 18 8 25 20 25 40 0 35 -16 52 -50
52 -14 0 -31 -5 -38 -12z m56 -36 c2 -14 -2 -22 -12 -22 -19 0 -29 17 -22 36
8 22 30 12 34 -14z"/>
</g>
</svg>
