<svg width="64" height="64" viewBox="0 0 64 64" xmlns="http://www.w3.org/2000/svg">
<path fill-rule="evenodd" clip-rule="evenodd" d="M52.2109 15.6029C50.0267 12.2654 47.4972 9.16696 44.6643 6.35894C42.8504 4.33261 40.758 2.57417 38.4496 1.13627C37.5513 0.791176 36.5925 0.631524 35.6309 0.666939C33.8296 0.797605 31.7136 1.32027 30.4083 1.39761C28.5803 1.39761 26.7269 1.58027 24.8989 1.60694H11.8429C11.7293 1.62285 11.6199 1.66131 11.5213 1.72008C11.4227 1.77885 11.3369 1.85673 11.2688 1.94914C11.2007 2.04156 11.1518 2.14665 11.1249 2.25824C11.098 2.36983 11.0937 2.48566 11.1123 2.59894C11.1122 2.71089 11.1346 2.82171 11.1782 2.92482C11.2218 3.02794 11.2857 3.12125 11.366 3.19922C11.4463 3.27719 11.5415 3.33823 11.6459 3.37872C11.7503 3.41921 11.8617 3.43833 11.9736 3.43494C16.9603 3.43494 21.8963 3.85227 26.8563 3.95761H30.6163C31.9216 3.95761 34.0629 3.54027 35.8389 3.48827C36.3939 3.44787 36.9516 3.50979 37.4843 3.67094C39.7952 5.49691 41.8889 7.58212 43.7243 9.88561C45.7959 12.0594 47.6741 14.4096 49.3376 16.9096C50.3475 21.1226 50.7781 25.4536 50.6176 29.7829C50.7496 39.8336 50.2789 52.6016 50.2789 59.1296C44.3523 59.3643 33.6723 59.7296 24.4029 59.5736C19.7813 59.6123 15.1634 59.2981 10.5896 58.6336C9.51893 58.4243 7.97893 58.2936 8.39626 57.9283H8.50159C8.20485 56.9914 8.06387 56.0121 8.08426 55.0296V49.3109L7.92826 27.4043V14.3483C7.92826 11.4496 7.92826 8.57761 8.21493 5.70561C8.22941 5.59518 8.22095 5.48296 8.19007 5.37596C8.1592 5.26895 8.10657 5.16948 8.03548 5.08375C7.96439 4.99802 7.87638 4.92788 7.77694 4.87773C7.67751 4.82757 7.56879 4.79848 7.45759 4.79227C7.34782 4.78163 7.23703 4.79281 7.1316 4.82517C7.02617 4.85753 6.92819 4.91043 6.84329 4.98083C6.75839 5.05123 6.68826 5.13772 6.63694 5.23534C6.58562 5.33296 6.55412 5.43976 6.54426 5.54961C6.09893 8.50027 5.89093 11.3989 5.89093 14.2963C5.65626 18.6563 5.55093 23.0176 5.39493 27.3523C5.23893 31.6869 5.08159 36.1256 5.00293 40.4083V49.1816C5.00293 50.5136 4.84693 53.6469 5.00293 56.1016C5.04751 57.3206 5.3593 58.515 5.91626 59.6003C6.48585 60.3876 7.31977 60.9438 8.26559 61.1669C10.6835 61.775 13.1623 62.1078 15.6549 62.1589C35.4469 63.0989 47.1443 64.0656 51.8189 61.6109C53.4643 60.7229 52.9683 59.6523 53.0723 57.6163C53.4643 48.1376 53.6723 44.3256 53.7509 29.6256C53.9459 24.901 53.4267 20.174 52.2109 15.6043V15.6029Z" />
<path fill-rule="evenodd" clip-rule="evenodd" d="M11.4254 39.5985C12.7054 39.5985 14.036 39.5985 15.2374 39.8078L16.3347 39.8332L16.0214 44.5598C16.0143 44.6696 16.029 44.7796 16.0645 44.8837C16.1001 44.9877 16.1558 45.0837 16.2285 45.1662C16.3012 45.2487 16.3894 45.316 16.4882 45.3644C16.587 45.4127 16.6943 45.4411 16.804 45.4478C16.9138 45.4549 17.0238 45.4402 17.1278 45.4047C17.2319 45.3692 17.3279 45.3134 17.4104 45.2407C17.4929 45.168 17.5602 45.0798 17.6085 44.981C17.6569 44.8822 17.6852 44.7749 17.692 44.6652L18.188 40.0172L22.5747 40.4612V41.7932C22.5747 43.5945 22.2094 48.9732 23.4627 51.5585C23.6879 52.1028 24.0441 52.583 24.4995 52.9566C24.9549 53.3301 25.4955 53.5854 26.0734 53.6998C27.1076 53.8998 28.1791 53.7042 29.076 53.1518C29.8788 52.6949 30.511 51.9891 30.8774 51.1412C31.3114 50.2084 31.5936 49.2123 31.7134 48.1905C31.9605 46.459 32.1172 44.7157 32.1827 42.9678V40.6705H32.6L36.4387 40.4612V42.9158C36.5141 44.5246 36.7777 46.119 37.224 47.6665C37.3113 48.1465 37.5239 48.5948 37.8402 48.9662C38.1565 49.3375 38.5654 49.6187 39.0254 49.7812C39.2585 49.794 39.4884 49.7219 39.6725 49.5784C39.8567 49.4349 39.9826 49.2295 40.0272 49.0004C40.0717 48.7712 40.0318 48.5336 39.9148 48.3316C39.7978 48.1295 39.6116 47.9766 39.3907 47.9012C39.3907 47.9012 39.3907 47.7185 39.26 47.5612C39.0774 47.0442 38.9461 46.5105 38.868 45.9678C38.7276 44.9639 38.6493 43.9522 38.6334 42.9385V40.3278C40.748 40.1718 42.8894 40.0412 45.0307 39.9625C45.1586 39.9662 45.286 39.9437 45.4049 39.8964C45.5239 39.8492 45.6319 39.7781 45.7224 39.6876C45.8129 39.5971 45.884 39.489 45.9313 39.3701C45.9786 39.2511 46.001 39.1238 45.9974 38.9958C45.9975 38.744 45.8993 38.5021 45.7237 38.3216C45.5482 38.141 45.3091 38.0361 45.0574 38.0292C42.9427 38.0292 40.828 37.8985 38.712 37.7945C38.8427 36.0972 38.9734 34.3998 38.9467 32.5718C38.9444 31.0151 38.7158 29.4669 38.268 27.9758C37.9207 26.651 37.2978 25.4143 36.44 24.3465C35.7091 23.4561 34.6605 22.8847 33.516 22.7532C32.9834 22.6999 32.4473 22.8117 31.9803 23.0733C31.5134 23.335 31.1381 23.7338 30.9054 24.2158C30.0292 26.2714 29.5167 28.4635 29.3907 30.6945C29.3907 31.4772 29.208 34.3238 29.0774 37.5612H25.056C25.056 37.1172 25.056 36.6732 24.8467 36.2292C24.7521 35.6815 24.6211 35.1408 24.4547 34.6105C24.3839 34.1962 24.2882 33.7866 24.168 33.3838C23.9805 32.9762 23.7621 32.5835 23.5147 32.2092C21.896 29.7812 20.3814 29.7545 19.3627 30.4332C18.5658 31.0593 17.9822 31.9168 17.692 32.8878C17.1951 34.434 16.8538 36.0259 16.6734 37.6398C14.9286 37.6435 13.1853 37.7392 11.4507 37.9265C11.3409 37.926 11.2323 37.9485 11.1318 37.9926C11.0314 38.0368 10.9413 38.1016 10.8675 38.1828C10.7937 38.2641 10.7378 38.3599 10.7034 38.4641C10.6691 38.5684 10.657 38.6787 10.668 38.7878C10.6736 38.992 10.7538 39.187 10.8933 39.3361C11.0328 39.4852 11.2221 39.5794 11.4254 39.5985ZM32.4974 31.0598C32.566 29.7853 32.7408 28.5187 33.02 27.2732C33.176 26.6732 33.7507 26.1238 33.7254 25.7852C34.1338 25.9792 34.4848 26.276 34.744 26.6465C35.2176 27.328 35.587 28.0762 35.84 28.8665C36.2429 30.1451 36.4799 31.4702 36.5454 32.8092V37.7185C35.24 37.7185 33.9347 37.7185 32.6547 37.5625H32.3414C32.368 34.6118 32.3934 31.7905 32.4974 31.0598ZM28.8947 42.7838C28.845 44.4439 28.7057 46.1001 28.4774 47.7452C28.4099 48.36 28.2698 48.9646 28.06 49.5465C27.9871 49.8972 27.7811 50.2059 27.4854 50.4078C27.12 50.6172 26.8854 50.8252 26.6494 50.6692C26.295 50.3063 26.0661 49.8395 25.996 49.3372C25.5914 46.8252 25.408 44.2826 25.448 41.7385V40.6945H29.0774C28.9734 41.3998 28.9467 42.1052 28.8947 42.7838ZM20.0174 32.7838C20.1734 32.5745 20.2787 32.3918 20.4347 32.3398C20.5907 32.2878 20.4347 32.3398 20.644 32.5492C20.9279 32.8328 21.1659 33.159 21.3494 33.5158L22.0547 35.2652C22.1794 35.7096 22.2668 36.1636 22.316 36.6225V37.5625H18.4254C18.6729 35.8887 19.2109 34.2713 20.0174 32.7838Z" />
<path fill-rule="evenodd" clip-rule="evenodd" d="M49.2357 6.17583C52.1609 7.77882 54.5154 10.2516 55.9731 13.2518C56.3384 15.1318 56.7304 24.3492 57.0957 33.5398C57.4611 42.7305 56.3131 58.2932 56.5211 60.1465C56.5384 60.3542 56.6375 60.5466 56.7967 60.6813C56.9559 60.8159 57.162 60.8818 57.3697 60.8645C57.5775 60.8472 57.7699 60.748 57.9045 60.5889C58.0392 60.4297 58.1051 60.2236 58.0877 60.0158C58.0877 58.9452 59.3677 48.0825 59.2891 42.4425C59.1064 31.2932 58.8451 15.6785 58.5317 12.8585C57.9823 10.8412 56.9657 8.9817 55.564 7.43041C54.1624 5.87912 52.4151 4.67967 50.4637 3.92916C47.6704 3.27583 47.8784 5.70516 49.2371 6.17449L49.2357 6.17583Z" />
</svg>
