<svg width="64" height="64" viewBox="0 0 64 64" xmlns="http://www.w3.org/2000/svg">
<g clip-path="url(#clip0_477_28047)">
<path d="M27.17 29.832C27.871 30.355 28.6035 30.8346 29.3633 31.268C29.8703 31.5317 30.4377 31.6576 31.0087 31.6333C31.9779 31.4977 32.8858 31.0799 33.6193 30.432C34.4126 29.7406 35.1147 28.9512 35.7087 28.0826C38.0308 28.6941 40.4646 28.7475 42.8113 28.2386C43.8599 28.0609 44.8337 27.5808 45.613 26.8571C46.3923 26.1334 46.9432 25.1978 47.198 24.1653C47.2615 23.7915 47.1774 23.4076 46.9633 23.0946C46.5635 22.5909 46.098 22.1429 45.5793 21.7626L41.662 18.1853C40.5393 17.1933 39.442 16.1746 38.346 15.156C35.7353 12.78 33.1233 10.3253 30.774 7.84529C30.1881 7.27331 29.5498 6.7577 28.8673 6.30529C28.3587 5.98641 27.8036 5.74846 27.222 5.59996C26.7596 5.48503 26.2872 5.41492 25.8113 5.39062C25.6248 5.39871 25.4427 5.45016 25.2796 5.54089C25.1164 5.63161 24.9766 5.75912 24.8713 5.91329C24.0938 7.12746 23.6028 8.50261 23.4353 9.93463C23.28 11.9822 23.5287 14.0403 24.1673 15.992C24.1673 15.992 22.2087 17.272 21.3207 18.0813C20.8322 18.5269 20.4717 19.0949 20.2767 19.7266C20.1034 20.6398 20.1304 21.5796 20.3557 22.4813C20.5811 23.383 20.9995 24.225 21.582 24.9493C23.1571 26.8793 25.0462 28.5299 27.17 29.832ZM22.9927 19.0746C23.6309 18.423 24.302 17.8044 25.0033 17.2213C25.2879 17.09 25.51 16.8527 25.6221 16.56C25.7342 16.2673 25.7274 15.9424 25.6033 15.6546C25.2399 14.1683 25.0904 12.6378 25.1593 11.1093C25.2625 9.91282 25.628 8.75378 26.23 7.71463C26.7819 7.88879 27.3085 8.13443 27.7967 8.44529C28.2137 8.80143 28.6062 9.18542 28.9713 9.59462C30.694 11.448 32.418 13.328 34.194 15.104C35.97 16.88 37.902 18.6026 39.834 20.3266C39.834 20.3266 44.4553 24.008 44.7433 24.1906C44.5454 24.6883 44.235 25.1334 43.8364 25.4912C43.4379 25.8491 42.962 26.1099 42.446 26.2533C40.234 26.8703 37.8953 26.8703 35.6833 26.2533C35.5788 26.2164 35.4679 26.2007 35.3572 26.2071C35.2465 26.2135 35.1382 26.2418 35.0386 26.2904C34.9389 26.3391 34.8499 26.4071 34.7768 26.4904C34.7037 26.5738 34.6479 26.6708 34.6127 26.776C34.5886 26.888 34.5886 27.0039 34.6127 27.116C34.0379 27.7713 33.3896 28.3582 32.6807 28.8653C32.2342 29.1988 31.6975 29.3898 31.1407 29.4133C30.906 29.4133 30.7233 29.204 30.514 29.048C29.8873 28.604 29.3127 28.0293 28.8953 27.6906C26.9831 26.4964 25.243 25.0466 23.7233 23.3813C22.8489 22.5189 22.3513 21.3454 22.3393 20.1173C22.4487 19.7122 22.6761 19.3488 22.9927 19.0733V19.0746Z" />
<path d="M41.8696 8.49955C41.2579 8.00765 40.5696 7.61939 39.8323 7.35022C38.2491 6.86763 36.5581 6.86763 34.9749 7.35022C34.781 7.38134 34.6073 7.48823 34.4922 7.64739C34.377 7.80655 34.3298 8.00493 34.3609 8.19889C34.392 8.39285 34.4989 8.5665 34.6581 8.68165C34.8172 8.7968 35.0156 8.84401 35.2096 8.81289C36.4709 8.87619 37.6982 9.24351 38.7869 9.88355C39.2405 10.1224 39.6766 10.3929 40.0923 10.6929C40.8442 11.0929 41.4799 11.6807 41.9374 12.3992C42.3949 13.1176 42.6586 13.9423 42.7029 14.7929C42.6808 15.0176 42.7477 15.2419 42.8894 15.4177C43.031 15.5936 43.236 15.7067 43.4603 15.7329C43.6791 15.7415 43.8934 15.6689 44.062 15.5291C44.2305 15.3894 44.3415 15.1922 44.3736 14.9756C44.5795 14.0064 44.5593 13.0029 44.3147 12.0428C44.07 11.0828 43.6075 10.192 42.9629 9.43955C42.6384 9.08157 42.2702 8.76577 41.8669 8.49955H41.8696Z" />
<path d="M34.3734 2.85906C36.5991 2.56409 38.8607 2.99424 40.8227 4.08572C41.6862 4.49778 42.5155 4.97797 43.3027 5.52172C44.0899 6.04095 44.8245 6.63577 45.4961 7.29772C46.3066 7.99286 46.9453 8.86614 47.3621 9.84922C47.7789 10.8323 47.9626 11.8985 47.8987 12.9644C47.8669 13.1847 47.919 13.4089 48.0447 13.5927C48.1704 13.7764 48.3605 13.9062 48.5774 13.9564C48.7956 13.9944 49.0199 13.9442 49.2011 13.817C49.3823 13.6897 49.5057 13.4958 49.5441 13.2777C49.856 11.9004 49.8289 10.468 49.4649 9.10353C49.101 7.73905 48.4112 6.48337 47.4547 5.44439C46.6943 4.54727 45.8161 3.75701 44.8441 3.09506C43.8906 2.45512 42.8654 1.9293 41.7894 1.52839C39.2747 0.573218 36.5068 0.518097 33.9561 1.37239C33.7734 1.43229 33.6218 1.56175 33.5339 1.73271C33.4461 1.90367 33.4291 2.10235 33.4867 2.28572C33.5016 2.38465 33.5372 2.4793 33.5914 2.56338C33.6456 2.64746 33.7171 2.71906 33.8011 2.77341C33.8851 2.82775 33.9796 2.86362 34.0785 2.87861C34.1775 2.89361 34.2784 2.8874 34.3747 2.86039L34.3734 2.85906Z" />
<path d="M63.3324 38.2916C63.1291 35.767 62.7805 33.2562 62.2884 30.7716C61.7657 28.161 61.087 25.6796 60.5124 23.461C60.119 21.681 59.5862 19.9347 58.919 18.2383C58.5125 17.285 57.819 16.482 56.935 15.941C55.2937 15.2065 53.4496 15.0592 51.7124 15.5236C49.3773 16.0234 47.2049 17.1007 45.3937 18.657C45.3182 18.7169 45.2553 18.7912 45.2086 18.8755C45.1618 18.9598 45.1321 19.0524 45.1211 19.1482C45.1102 19.244 45.1182 19.3409 45.1447 19.4336C45.1712 19.5263 45.2157 19.6128 45.2757 19.6883C45.3357 19.7638 45.4099 19.8267 45.4942 19.8735C45.5785 19.9202 45.6712 19.9499 45.7669 19.9609C45.8627 19.9718 45.9597 19.9638 46.0524 19.9373C46.145 19.9108 46.2316 19.8663 46.307 19.8063C47.7164 18.7713 49.3263 18.0419 51.0337 17.665C52.5619 17.1917 54.2125 17.3131 55.655 18.005C56.2042 18.5077 56.5714 19.1782 56.699 19.9116C57.1684 21.4263 57.4297 23.201 57.691 24.2983C58.291 26.4916 58.8924 28.9196 59.4924 31.453C60.0924 33.9863 60.5884 36.2316 60.9284 38.633C61.289 41.0611 61.394 43.5203 61.2417 45.9703C58.2435 45.2903 55.146 45.1665 52.103 45.605C48.9537 46.0454 45.8683 46.8605 42.9124 48.033C41.9819 48.4149 41.1045 48.915 40.3017 49.521C39.2827 50.3402 38.3067 51.2116 37.3777 52.1316L36.699 52.7063C36.699 50.7743 36.5684 48.8423 36.4124 46.909C36.4124 45.917 36.2297 44.9503 36.0724 43.985C35.9427 43.0011 35.7597 42.025 35.5244 41.061C34.9465 38.8317 34.249 36.6352 33.435 34.481C33.414 34.3867 33.3738 34.2977 33.3169 34.2196C33.26 34.1415 33.1877 34.0759 33.1045 34.0269C33.0212 33.9779 32.9288 33.9465 32.8329 33.9347C32.737 33.9229 32.6397 33.931 32.547 33.9583C32.3988 33.9961 32.2662 34.0795 32.1679 34.1967C32.0695 34.3139 32.0105 34.4591 31.999 34.6116C32.3644 36.857 32.5737 39.077 32.8604 41.3223C32.8604 42.289 33.1217 43.229 33.2777 44.169C33.4337 45.109 33.591 46.0756 33.7737 47.0156C34.087 48.765 34.427 50.5143 34.7657 52.2383C34.1124 51.8983 33.355 51.4556 32.3897 51.0116C31.3583 50.5204 30.294 50.1016 29.2044 49.7583C25.4249 48.6186 21.418 48.4571 17.559 49.289C14.1373 50.1147 10.9148 51.6151 8.08038 53.7023C8.1306 51.452 8.02591 49.2009 7.76705 46.965C7.49176 44.4877 7.0291 42.0349 6.38305 39.6276L3.48438 28.4783C3.43784 28.2335 3.46232 27.9805 3.55493 27.7492C3.64755 27.5179 3.80443 27.318 4.00705 27.173C4.63043 26.5907 5.34472 26.1142 6.12171 25.7623C8.22852 24.6677 10.4424 23.7929 12.7284 23.1516C14.1858 22.7291 15.7035 22.5525 17.219 22.629C17.4402 22.6596 17.6645 22.6031 17.8449 22.4716C18.0252 22.34 18.1474 22.1435 18.1857 21.9236C18.2155 21.7057 18.1581 21.4847 18.0261 21.3088C17.894 21.1328 17.698 21.016 17.4804 20.9836C15.7375 20.7667 13.9702 20.8552 12.2577 21.245C9.78474 21.732 7.36941 22.476 5.05105 23.465C3.75306 23.9523 2.58338 24.7293 1.63105 25.737C1.21275 26.1842 0.914418 26.73 0.763817 27.3235C0.613215 27.9171 0.615243 28.5391 0.769712 29.1316C0.925712 29.7063 1.68305 32.8916 2.49238 35.8943C2.98838 37.6436 3.48438 39.341 3.84971 40.385C4.70862 42.6418 5.39024 44.9622 5.88838 47.325C6.35771 49.701 6.80171 55.1583 6.80171 55.445C6.81658 56.476 7.16457 57.4746 7.79371 58.2916C8.14354 58.7215 8.58591 59.0668 9.08781 59.3018C9.58972 59.5368 10.1382 59.6555 10.6924 59.649C11.2876 59.6538 11.8792 59.5568 12.4417 59.3623C13.5377 59.0223 14.6617 58.3956 15.679 58.161C17.051 57.8281 18.4483 57.6096 19.8564 57.5076C21.2366 57.3626 22.6282 57.3626 24.0084 57.5076C26.3336 57.5697 28.5511 58.5012 30.223 60.1183C31.0468 61.1214 32.0575 61.9551 33.199 62.573C34.3123 63.0024 35.5197 63.1285 36.6977 62.9383C38.2547 62.7848 39.7467 62.2364 41.0324 61.345C42.5076 60.0031 43.8543 58.5265 45.055 56.9343C45.5613 56.3975 46.1523 55.9475 46.8044 55.6023C47.9185 55.0381 49.0809 54.5749 50.2777 54.2183C51.4885 53.8439 52.729 53.5731 53.9857 53.409C55.2349 53.2655 56.4965 53.2655 57.7457 53.409C58.007 53.409 59.7044 53.853 60.3564 53.8783C60.5488 53.898 60.7433 53.8728 60.9244 53.8048C61.1055 53.7368 61.2684 53.6278 61.4004 53.4863C61.882 52.82 62.2036 52.0517 62.3404 51.241C62.9693 46.9521 63.3007 42.6262 63.3324 38.2916ZM60.4857 51.661C59.7191 51.4156 58.9127 51.3183 58.1097 51.3743C56.7177 51.1739 55.3075 51.13 53.9057 51.2436C52.5017 51.3555 51.1115 51.6002 49.7537 51.9743C48.3989 52.3108 47.0789 52.7741 45.811 53.3583C44.8464 53.798 43.9636 54.3985 43.2004 55.1343C42.0054 56.6026 40.6863 57.9654 39.2577 59.2076C38.3392 59.8265 37.2794 60.2034 36.1764 60.3036C33.9564 60.5903 33.3044 59.573 32.2337 58.5023C31.215 57.3815 29.9685 56.4914 28.5777 55.8916C27.1578 55.3914 25.6702 55.109 24.1657 55.0543C22.6221 54.9743 21.0744 55.0444 19.5444 55.2636C18.0259 55.4755 16.5249 55.7986 15.0537 56.2303C14.035 56.5436 12.887 57.249 11.7897 57.6663C11.4183 57.8272 11.0196 57.9159 10.615 57.9276C10.3052 57.9534 9.99352 57.908 9.70394 57.7947C9.41435 57.6815 9.15453 57.5035 8.94438 57.2743C8.5254 56.7707 8.27045 56.151 8.21371 55.4983C11.1535 53.4747 14.4922 52.1035 18.0057 51.477C21.5141 50.8948 25.1137 51.2367 28.4497 52.469C30.6844 53.3257 32.8564 54.338 34.9497 55.4983C35.4334 55.6784 35.957 55.7235 36.4644 55.629C37.2627 55.4389 38.005 55.0634 38.6311 54.533C40.1438 52.8627 41.9054 51.4361 43.8537 50.3036C46.5741 49.0898 49.4326 48.2131 52.3657 47.693C55.2042 47.1572 58.1179 47.1572 60.9564 47.693C61.0084 47.6663 60.5124 51.401 60.4084 51.6623L60.4857 51.661Z" />
</g>
<defs>
<clipPath id="clip0_477_28047">
<rect width="64" height="64" />
</clipPath>
</defs>
</svg>
