<svg width="64" height="64" viewBox="0 0 64 64" xmlns="http://www.w3.org/2000/svg">
<path fill-rule="evenodd" clip-rule="evenodd" d="M4.71527 24.7141C4.71527 24.7141 4.34994 24.8968 4.24594 25.5235C3.9326 27.5075 3.20194 34.6621 5.2126 34.3755C6.12594 34.3755 6.0486 33.6181 6.43927 30.1981C6.47837 29.6678 6.47837 29.1352 6.43927 28.6048C6.43927 28.3181 6.04727 25.1581 5.44727 24.6875C4.84727 24.2168 4.9766 24.6088 4.71527 24.7141Z" />
<path fill-rule="evenodd" clip-rule="evenodd" d="M59.3132 24.167C57.7199 23.671 57.6426 26.387 57.5372 28.0843C57.498 28.6058 57.498 29.1295 57.5372 29.651C57.9812 33.515 57.9546 33.855 58.7639 33.855C59.1292 33.855 59.3906 33.6723 59.6519 33.307C60.4346 32.1576 60.2266 24.403 59.3119 24.1683L59.3132 24.167Z" />
<path fill-rule="evenodd" clip-rule="evenodd" d="M13.4358 17.4816C13.4292 17.3888 13.4044 17.2983 13.3627 17.2153C13.321 17.1322 13.2634 17.0582 13.193 16.9974C13.1226 16.9367 13.0409 16.8905 12.9526 16.8615C12.8643 16.8324 12.7712 16.8211 12.6785 16.8282C11.7385 16.8282 11.9211 17.5069 11.6345 23.3562C11.6345 25.0269 11.0865 28.7096 11.0078 33.1216C11.022 37.1117 11.2834 41.0971 11.7905 45.0549C11.8794 45.2305 12.0227 45.3726 12.199 45.4602C12.3752 45.5477 12.575 45.576 12.7687 45.5407C12.9623 45.5055 13.1394 45.4087 13.2735 45.2647C13.4077 45.1207 13.4917 44.9372 13.5131 44.7416C13.3894 43.0554 13.3894 41.3624 13.5131 39.6762C14.0499 32.2867 14.0236 24.8671 13.4345 17.4816H13.4358Z" />
<path fill-rule="evenodd" clip-rule="evenodd" d="M52.3962 22.7571C52.3962 22.9398 52.2402 17.0385 52.0562 16.6998C51.9799 16.5834 51.875 16.4887 51.7514 16.4247C51.6279 16.3607 51.4899 16.3296 51.3509 16.3345C50.1762 16.3345 50.8549 17.4051 50.2282 22.8625C49.6015 28.3198 50.5415 45.0571 51.3242 45.0571C51.507 45.0659 51.6884 45.0212 51.8462 44.9283C52.0039 44.8355 52.1311 44.6986 52.2122 44.5345C52.7217 40.5855 52.992 36.6094 53.0215 32.6278C52.8909 28.1371 52.4989 24.5598 52.3949 22.7585L52.3962 22.7571Z" />
<path fill-rule="evenodd" clip-rule="evenodd" d="M22.3159 9.64773C22.2322 9.60301 22.1403 9.57563 22.0459 9.56723C21.9514 9.55882 21.8561 9.56957 21.7659 9.59882C21.6756 9.62807 21.5922 9.67523 21.5206 9.73748C21.449 9.79972 21.3907 9.87577 21.3492 9.96107C21.0359 10.4837 21.1145 10.7704 20.9052 17.4544C20.1376 27.2867 20.3565 37.1711 21.5585 46.9597C21.8452 50.1971 21.9239 51.5557 22.2892 51.9211C22.6545 52.2864 23.2025 52.3131 23.5159 51.9211C23.7375 50.2399 23.7375 48.5369 23.5159 46.8557C23.5159 46.0731 23.2292 10.1437 22.3145 9.64773H22.3159Z" />
<path fill-rule="evenodd" clip-rule="evenodd" d="M42.6809 9.33471C42.637 9.25168 42.577 9.17825 42.5044 9.11873C42.4317 9.05921 42.3479 9.01479 42.2579 8.98809C42.1678 8.96139 42.0734 8.95294 41.98 8.96324C41.8867 8.97353 41.7963 9.00237 41.7143 9.04805C41.0609 9.38805 41.1396 25.2374 40.4876 46.204C40.3569 50.4867 40.0703 50.9307 40.4876 51.1387C40.9049 51.3467 41.6103 51.6081 41.7929 50.7734C41.9756 49.9387 43.0729 37.2214 43.0983 37.0387C43.5023 30.3168 43.5023 23.5766 43.0983 16.8547C43.1503 17.3507 42.9156 9.72671 42.6809 9.33471Z" />
<path fill-rule="evenodd" clip-rule="evenodd" d="M32.9136 0.927353C32.8422 0.845021 32.7539 0.779053 32.6548 0.733953C32.5556 0.688852 32.4479 0.665681 32.3389 0.666019C31.3202 0.666019 31.4776 1.84069 31.2429 5.67935C28.9976 24.9754 30.5122 64.6127 31.8176 63.1233C32.9669 64.5593 32.4176 55.9434 32.5229 45.6807C32.7842 25.314 33.0189 36.098 32.6789 16.4367C32.4696 10.3007 33.2536 1.34469 32.9136 0.926019V0.927353Z" />
</svg>
