<svg width="64" height="64" viewBox="0 0 64 64" xmlns="http://www.w3.org/2000/svg">
<path fill-rule="evenodd" clip-rule="evenodd" d="M40.641 6.88219C40.4281 6.90081 40.229 6.9956 40.0803 7.14917C39.9317 7.30273 39.8434 7.50477 39.8317 7.71819C39.309 14.7689 39.8317 24.1155 38.3957 32.5235C37.9265 35.9028 36.9587 39.1937 35.5237 42.2889C32.677 48.2422 27.4037 52.4462 17.5063 52.7329C14.8369 52.6381 12.1967 52.1452 9.67299 51.2702C7.03883 50.624 4.55573 49.471 2.36233 47.8755C2.27007 47.7822 2.16023 47.7082 2.03916 47.6576C1.91809 47.6071 1.78819 47.5811 1.65699 47.5811C1.5258 47.5811 1.3959 47.6071 1.27483 47.6576C1.15376 47.7082 1.04392 47.7822 0.951661 47.8755C0.76962 48.0652 0.667969 48.3179 0.667969 48.5809C0.667969 48.8438 0.76962 49.0965 0.951661 49.2862C3.253 51.219 5.91576 52.6748 8.78499 53.5689C11.569 54.6483 14.5005 55.2997 17.4797 55.5009C28.8903 55.5009 35.1303 50.5662 38.369 43.6982C39.9341 40.2919 40.914 36.6462 41.2677 32.9142C42.2863 24.3235 41.2677 14.8969 41.2677 7.76886C41.2763 7.57234 41.2195 7.37851 41.106 7.21779C40.9926 7.05707 40.8291 6.93989 40.641 6.88219Z" />
<path fill-rule="evenodd" clip-rule="evenodd" d="M18.2887 27.5618C20.7434 27.5618 22.31 25.1072 22.8314 21.8432C23.0017 20.5345 23.0017 19.2092 22.8314 17.9005C22.5849 16.0309 22.2449 14.1748 21.8127 12.3392C21.8127 12.1037 21.7191 11.8778 21.5526 11.7113C21.3861 11.5447 21.1602 11.4512 20.9247 11.4512C20.6892 11.4512 20.4633 11.5447 20.2968 11.7113C20.1303 11.8778 20.0367 12.1037 20.0367 12.3392C20.0367 13.3578 19.75 16.0205 19.6447 18.8405C19.6556 20.1832 19.595 21.5256 19.4634 22.8618C19.254 24.1938 19.1234 25.3418 18.0794 25.4725C17.8162 25.5113 17.5777 25.649 17.4127 25.8577C17.2476 26.0663 17.1685 26.3301 17.1914 26.5952C17.1901 26.7338 17.2187 26.871 17.2752 26.9976C17.3316 27.1242 17.4146 27.2372 17.5186 27.3288C17.6225 27.4205 17.745 27.4888 17.8776 27.529C18.0103 27.5692 18.1513 27.5804 18.2887 27.5618Z" />
<path fill-rule="evenodd" clip-rule="evenodd" d="M17.7166 32.2871C17.075 32.209 16.4263 32.209 15.7846 32.2871C14.26 32.4166 12.8132 33.0161 11.6439 34.0029C10.4746 34.9898 9.64044 36.3153 9.25664 37.7965C8.90906 39.2825 9.00315 40.8377 9.52735 42.271C10.0515 43.7043 10.983 44.9533 12.2073 45.8645C13.2416 46.6253 14.4569 47.1024 15.7326 47.2485C16.9038 47.368 18.0866 47.2886 19.2313 47.0138C20.0381 46.8221 20.8185 46.5329 21.5553 46.1525C23.8767 44.8835 25.713 42.8822 26.778 40.4605C26.8355 40.3423 26.869 40.214 26.8765 40.0828C26.8841 39.9516 26.8655 39.8203 26.8218 39.6963C26.7781 39.5724 26.7103 39.4584 26.6222 39.3609C26.5341 39.2634 26.4275 39.1844 26.3086 39.1285C26.1948 39.0669 26.0694 39.0296 25.9404 39.0187C25.8114 39.0079 25.6816 39.0238 25.559 39.0655C25.4365 39.1072 25.3239 39.1737 25.2283 39.261C25.1326 39.3482 25.056 39.4543 25.0033 39.5725C24.6403 40.2319 24.2114 40.8528 23.7233 41.4258C23.244 41.9745 22.7101 42.473 22.13 42.9138C21.6283 43.267 21.0845 43.5563 20.5113 43.7751C19.9283 43.9923 19.3248 44.1496 18.71 44.2445C17.8455 44.3862 16.9638 44.3862 16.0993 44.2445C15.3725 44.1168 14.6949 43.7916 14.1406 43.3045C13.4297 42.7662 12.8907 42.0327 12.5893 41.1935C12.2879 40.3542 12.2372 39.4454 12.4433 38.5778C12.633 37.6535 13.1123 36.8136 13.8117 36.1802C14.511 35.5467 15.3941 35.1527 16.3326 35.0551C16.775 35.0013 17.2223 35.0013 17.6646 35.0551C18.4273 35.0687 19.1873 35.1472 19.9366 35.2898C21.9023 35.5942 23.8173 36.1653 25.6286 36.9871C25.8408 37.0892 26.0842 37.1055 26.308 37.0324C26.5319 36.9594 26.7189 36.8027 26.83 36.5951C26.8833 36.4926 26.9155 36.3805 26.9246 36.2653C26.9338 36.1501 26.9196 36.0343 26.883 35.9247C26.8465 35.8151 26.7882 35.714 26.7118 35.6273C26.6353 35.5407 26.5422 35.4704 26.438 35.4205C25.4952 34.8794 24.5185 34.3997 23.514 33.9845C22.5152 33.582 21.4955 33.2335 20.4593 32.9405C19.5612 32.6616 18.644 32.4433 17.7166 32.2871Z" />
<path fill-rule="evenodd" clip-rule="evenodd" d="M27.4791 12.7295C28.0676 12.1607 28.8539 11.8423 29.6724 11.8415C29.9152 11.8144 30.1603 11.8144 30.4031 11.8415C31.6813 12.0968 32.8437 12.7559 33.7191 13.7215C33.7901 13.8328 33.8831 13.9283 33.9924 14.0022C34.1017 14.0761 34.2249 14.1269 34.3546 14.1514C34.4843 14.1759 34.6176 14.1736 34.7463 14.1446C34.875 14.1156 34.9964 14.0606 35.1031 13.9829C35.2115 13.9095 35.3044 13.8154 35.3763 13.706C35.4482 13.5965 35.4977 13.474 35.522 13.3453C35.5463 13.2166 35.5449 13.0845 35.5178 12.9563C35.4908 12.8282 35.4386 12.7067 35.3644 12.5989C34.8226 11.3721 33.9891 10.2964 32.9364 9.46555C32.4245 9.07351 31.8385 8.78914 31.2138 8.62955C30.5135 8.43338 29.7727 8.43338 29.0724 8.62955C28.3623 8.88419 27.7189 9.2958 27.19 9.8337C26.6611 10.3716 26.2604 11.0219 26.0178 11.7362C25.8875 11.9304 25.8391 12.1681 25.883 12.3978C25.9269 12.6274 26.0597 12.8305 26.2524 12.9629C26.4485 13.0868 26.6843 13.1316 26.9121 13.088C27.1399 13.0444 27.3426 12.9158 27.4791 12.7282V12.7295Z" />
<path fill-rule="evenodd" clip-rule="evenodd" d="M7.16675 13.8542C8.28911 12.9358 9.66408 12.3802 11.1094 12.2609C11.4569 12.2342 11.8059 12.2342 12.1534 12.2609C13.1195 12.2669 14.0492 12.6297 14.7641 13.2796C14.8965 13.4723 15.0995 13.6051 15.3292 13.649C15.5589 13.6929 15.7966 13.6445 15.9908 13.5142C16.103 13.4551 16.2017 13.3731 16.2805 13.2736C16.3594 13.1742 16.4166 13.0594 16.4486 12.9366C16.4806 12.8137 16.4866 12.6856 16.4663 12.5603C16.4461 12.435 16.3999 12.3154 16.3307 12.2089C16.0268 11.4757 15.5687 10.8165 14.9876 10.2759C14.4065 9.73524 13.7159 9.3259 12.9627 9.07558C12.2808 8.8535 11.5552 8.79998 10.8481 8.91958C10.1703 9.00451 9.5147 9.21715 8.91608 9.54625C7.61926 10.251 6.51608 11.2644 5.70408 12.4969C5.60761 12.5873 5.53071 12.6966 5.47813 12.8179C5.42556 12.9392 5.39844 13.07 5.39844 13.2022C5.39844 13.3345 5.42556 13.4653 5.47813 13.5866C5.53071 13.7079 5.60761 13.8172 5.70408 13.9076C5.80057 14.0058 5.91644 14.0828 6.04432 14.1338C6.1722 14.1847 6.30929 14.2085 6.44687 14.2036C6.58444 14.1988 6.71949 14.1653 6.84343 14.1054C6.96737 14.0454 7.07748 13.959 7.16675 13.8542Z" />
<path fill-rule="evenodd" clip-rule="evenodd" d="M46.1755 35.1336C46.1473 35.0126 46.094 34.8988 46.0191 34.7997C45.9441 34.7006 45.8492 34.6183 45.7405 34.5582C45.6318 34.4981 45.5116 34.4614 45.3878 34.4506C45.2641 34.4398 45.1394 34.4551 45.0219 34.4956C44.9044 34.536 44.7967 34.6006 44.7057 34.6852C44.6148 34.7699 44.5426 34.8727 44.4939 34.987C44.4451 35.1013 44.4209 35.2245 44.4228 35.3488C44.4247 35.473 44.4527 35.5955 44.5049 35.7082C44.5657 36.7456 44.5219 37.7864 44.3742 38.8149L44.2182 40.5642V41.7389C44.1549 42.6325 43.9613 43.512 43.6435 44.3496C43.5705 44.459 43.52 44.5818 43.4948 44.7109C43.4697 44.84 43.4705 44.9728 43.4972 45.1016C43.5239 45.2304 43.5759 45.3526 43.6502 45.4611C43.7246 45.5696 43.8197 45.6622 43.9302 45.7336C44.0384 45.8101 44.1612 45.8636 44.291 45.8907C44.4207 45.9177 44.5547 45.9178 44.6845 45.891C44.8143 45.8641 44.9372 45.8108 45.0455 45.7344C45.1538 45.658 45.2453 45.5601 45.3142 45.4469C46.2016 44.4888 46.8856 43.3608 47.3249 42.1309C47.5107 41.5551 47.6249 40.9586 47.6649 40.3549C47.743 39.8008 47.743 39.2384 47.6649 38.6842C47.3826 37.422 46.8775 36.2199 46.1755 35.1336Z" />
<path fill-rule="evenodd" clip-rule="evenodd" d="M50.9296 29.3909C50.8263 29.4453 50.7351 29.5201 50.6615 29.6108C50.588 29.7015 50.5337 29.8063 50.5019 29.9186C50.4701 30.031 50.4614 30.1487 50.4765 30.2645C50.4916 30.3803 50.5301 30.4918 50.5896 30.5923C51.681 33.1974 52.1204 36.0295 51.8696 38.8429C51.8696 40.5403 51.6869 42.2629 51.4776 44.0656C51.1795 46.7208 50.6376 49.343 49.8589 51.8989C49.8036 52.0184 49.7733 52.1479 49.7699 52.2795C49.7664 52.4111 49.7899 52.5421 49.8388 52.6643C49.8877 52.7865 49.9611 52.8975 50.0545 52.9903C50.1478 53.0832 50.2591 53.156 50.3816 53.2043C50.6284 53.3031 50.9037 53.3041 51.1512 53.207C51.3988 53.1099 51.5999 52.9219 51.7136 52.6816C52.9961 50.1959 53.9777 47.5663 54.6376 44.8483C55.0664 42.9827 55.2506 41.0693 55.1856 39.1563C55.0774 35.8737 54.0058 32.6955 52.1043 30.0176C52.0838 29.8903 52.0341 29.7695 51.9592 29.6646C51.8843 29.5597 51.7861 29.4735 51.6724 29.4129C51.5587 29.3522 51.4324 29.3186 51.3036 29.3148C51.1747 29.311 51.0467 29.3371 50.9296 29.3909Z" />
<path fill-rule="evenodd" clip-rule="evenodd" d="M63.0446 35.9431C62.774 34.103 62.3279 32.293 61.7126 30.5378C61.1382 28.7286 60.2549 27.0324 59.1019 25.5245C59.035 25.4284 58.9499 25.3465 58.8514 25.2834C58.7528 25.2202 58.6428 25.1771 58.5276 25.1565C58.2949 25.1149 58.0552 25.1674 57.8613 25.3025C57.6673 25.4375 57.5349 25.6442 57.4933 25.8768C57.4517 26.1095 57.5042 26.3492 57.6393 26.5431C58.3294 27.6856 58.8402 28.9271 59.1539 30.2245C59.6268 32.2007 59.872 34.2245 59.8846 36.2565C60.0021 38.2218 60.0021 40.1924 59.8846 42.1578C59.8601 44.1243 59.7033 46.087 59.4153 48.0325C59.0465 50.6553 58.3896 53.2296 57.4566 55.7085C57.4013 55.8279 57.371 55.9575 57.3675 56.0891C57.3641 56.2207 57.3875 56.3516 57.4365 56.4738C57.4854 56.5961 57.5588 56.707 57.6521 56.7999C57.7455 56.8927 57.8568 56.9655 57.9793 57.0138C58.2183 57.1199 58.4895 57.1273 58.734 57.0344C58.9784 56.9415 59.1763 56.7558 59.2846 56.5178C60.915 53.3704 62.0761 50.0014 62.7313 46.5178C63.0518 44.7935 63.2439 43.0478 63.3059 41.2951C63.3244 39.5071 63.2371 37.7195 63.0446 35.9418V35.9431Z" />
</svg>
