<svg width="64" height="64" viewBox="0 0 64 64" xmlns="http://www.w3.org/2000/svg">
<path fill-rule="evenodd" clip-rule="evenodd" d="M48.7116 49.1276C48.5878 49.1406 48.4679 49.1779 48.3587 49.2376C48.2495 49.2972 48.1532 49.3779 48.0755 49.475C47.9977 49.5721 47.94 49.6837 47.9057 49.8033C47.8714 49.9229 47.8611 50.0481 47.8756 50.1716C48.234 52.0379 47.9895 53.9698 47.1774 55.6879C46.3653 57.406 45.0278 58.8213 43.3582 59.729C41.6541 60.4356 39.7783 60.6192 37.9695 60.2564C36.1607 59.8936 34.5007 59.0008 33.2009 57.6916C31.6694 56.3952 30.6629 54.5852 30.3696 52.6003C30.0763 50.6153 30.5164 48.5915 31.6076 46.9076C32.0509 45.9815 32.6798 45.1564 33.4552 44.4835C34.2307 43.8105 35.1362 43.3041 36.1155 42.9957C37.0948 42.6872 38.1271 42.5833 39.1482 42.6905C40.1693 42.7976 41.1576 43.1134 42.0516 43.6183C42.2466 43.7242 42.475 43.7508 42.6891 43.6924C42.9033 43.634 43.0866 43.4952 43.2009 43.305C43.2571 43.2128 43.2944 43.1103 43.3104 43.0035C43.3264 42.8968 43.3209 42.7878 43.2942 42.6832C43.2675 42.5786 43.2201 42.4804 43.1548 42.3944C43.0896 42.3083 43.0078 42.2362 42.9142 42.1823C41.8211 41.4683 40.593 40.9865 39.306 40.7668C38.019 40.5471 36.7006 40.5941 35.4325 40.905C34.1645 41.216 32.9738 41.7841 31.9344 42.5742C30.895 43.3644 30.0291 44.3596 29.3902 45.4983C27.8582 47.739 27.1985 50.4625 27.5352 53.1558C27.8719 55.8492 29.1818 58.3264 31.2182 60.121C33.0078 61.752 35.2433 62.8121 37.6387 63.1655C40.0341 63.519 42.4805 63.1497 44.6649 62.105C46.7274 60.9073 48.3492 59.077 49.2899 56.8853C50.2306 54.6936 50.4402 52.2571 49.8876 49.937C49.8732 49.8023 49.8299 49.6722 49.7606 49.5558C49.6914 49.4394 49.5977 49.3393 49.4862 49.2624C49.3746 49.1856 49.2477 49.1337 49.1143 49.1105C48.9808 49.0872 48.8426 49.0931 48.7116 49.1276Z" />
<path fill-rule="evenodd" clip-rule="evenodd" d="M53.9333 39.0755C53.8459 38.9878 53.7421 38.9182 53.6279 38.8707C53.5136 38.8233 53.391 38.7988 53.2673 38.7988C53.1435 38.7988 53.021 38.8233 52.9067 38.8707C52.7924 38.9182 52.6886 38.9878 52.6013 39.0755C49.9883 41.1797 47.5517 43.4941 45.3159 45.9955C43.5666 47.9021 41.9733 49.7821 40.7733 51.2181L39.5986 52.6808C37.9546 51.2292 36.4022 49.6769 34.9506 48.0328C34.7941 47.8783 34.5831 47.7917 34.3633 47.7917C34.1434 47.7917 33.9324 47.8783 33.7759 48.0328C33.6962 48.1084 33.6327 48.1995 33.5892 48.3005C33.5458 48.4015 33.5234 48.5102 33.5234 48.6201C33.5234 48.7301 33.5458 48.8388 33.5892 48.9398C33.6327 49.0408 33.6962 49.1318 33.7759 49.2075C35.1667 51.3037 36.7114 53.2937 38.3973 55.1608C38.6738 55.4496 39.0293 55.6506 39.4193 55.7388C39.8093 55.827 40.2167 55.7985 40.5906 55.6568C41.8406 54.8178 42.9583 53.7967 43.9066 52.6275C44.8199 51.6088 45.8906 50.3301 46.9613 48.9981C49.1288 46.0778 51.4564 43.2798 53.9333 40.6168C54.0521 40.5266 54.1484 40.4102 54.2147 40.2766C54.281 40.1431 54.3155 39.9959 54.3155 39.8468C54.3155 39.6977 54.281 39.5506 54.2147 39.417C54.1484 39.2834 54.0521 39.167 53.9333 39.0768V39.0755Z" />
<path fill-rule="evenodd" clip-rule="evenodd" d="M12.3906 16.7773C12.3906 16.6642 12.3684 16.5522 12.3251 16.4477C12.2818 16.3432 12.2183 16.2483 12.1384 16.1683C12.0584 16.0883 11.9634 16.0249 11.8589 15.9816C11.7544 15.9383 11.6424 15.916 11.5293 15.916C11.3076 15.916 11.0949 16.0041 10.9382 16.1609C10.7814 16.3177 10.6933 16.5303 10.6933 16.752C10.4586 18.24 10.1186 19.676 9.93598 21.1907C9.89634 21.8256 9.89634 22.4624 9.93598 23.0973V25.004C10.092 26.544 10.3533 28.0067 10.6146 29.4947C10.6213 29.6182 10.6522 29.7392 10.7057 29.8507C10.7592 29.9622 10.8342 30.0621 10.9263 30.1446C11.0185 30.2271 11.126 30.2906 11.2428 30.3314C11.3595 30.3723 11.4832 30.3897 11.6066 30.3827C11.7314 30.3797 11.8541 30.3512 11.9674 30.2989C12.0807 30.2466 12.182 30.1717 12.2652 30.0788C12.3484 29.9858 12.4117 29.8768 12.4512 29.7585C12.4906 29.6401 12.5054 29.515 12.4946 29.3907C12.4946 27.928 12.808 26.492 12.9386 25.004V23.124V21.2173C12.8866 19.7027 12.5733 18.2653 12.3906 16.7773Z" />
<path fill-rule="evenodd" clip-rule="evenodd" d="M19.5976 20.6161C19.4416 17.4828 19.2056 14.4281 19.2323 11.3721C19.2468 11.1478 19.173 10.9268 19.0268 10.7562C18.8806 10.5855 18.6735 10.4788 18.4496 10.4588C18.3399 10.4517 18.2299 10.4664 18.1258 10.5019C18.0218 10.5374 17.9258 10.5932 17.8433 10.6659C17.7608 10.7386 17.6934 10.8268 17.6451 10.9256C17.5968 11.0244 17.5684 11.1317 17.5616 11.2414C17.049 14.3446 16.7089 17.4739 16.543 20.6148V24.6361C16.543 26.0467 16.543 27.2467 16.7776 28.6574C17.0643 31.8174 17.483 34.8974 17.8216 37.9534C17.8418 38.2052 17.9596 38.439 18.15 38.605C18.3404 38.7709 18.5882 38.8558 18.8403 38.8414C18.9638 38.8348 19.0848 38.8038 19.1963 38.7503C19.3078 38.6968 19.4077 38.6219 19.4902 38.5297C19.5727 38.4376 19.6362 38.33 19.677 38.2133C19.7179 38.0966 19.7353 37.9729 19.7283 37.8494V28.5281V24.5588C19.7283 23.2014 19.6496 21.9214 19.5976 20.6161Z" />
<path fill-rule="evenodd" clip-rule="evenodd" d="M25.6821 0.665782C25.5724 0.658733 25.4624 0.673399 25.3583 0.708939C25.2543 0.744478 25.1582 0.800194 25.0758 0.872896C24.9933 0.945598 24.9259 1.03386 24.8776 1.13262C24.8293 1.23138 24.8009 1.33871 24.7941 1.44845C24.1675 6.40978 23.7235 11.4231 23.4101 16.4884C23.2795 18.6298 23.2275 20.7964 23.1755 22.9378C23.1235 25.0791 23.1755 27.2724 23.1755 29.4138C23.1755 34.4791 23.5675 39.5191 23.8808 44.5058C23.8842 44.6292 23.912 44.7508 23.9624 44.8635C24.0129 44.9763 24.0851 45.0779 24.1749 45.1628C24.2646 45.2476 24.3702 45.3139 24.4856 45.3579C24.6011 45.4019 24.724 45.4227 24.8475 45.4191C25.0945 45.4055 25.3269 45.2976 25.4968 45.1178C25.6667 44.938 25.7612 44.6998 25.7608 44.4524C25.7608 39.2298 26.0475 34.1911 26.2048 29.0205C26.2048 25.5738 26.4141 22.1538 26.4395 18.7324V1.55112C26.4532 1.33402 26.3818 1.1201 26.2404 0.954798C26.099 0.789493 25.8987 0.685816 25.6821 0.665782Z" />
<path fill-rule="evenodd" clip-rule="evenodd" d="M30.2751 27.2987C30.2716 27.4221 30.2924 27.5451 30.3363 27.6605C30.3803 27.7759 30.4466 27.8815 30.5315 27.9713C30.6163 28.0611 30.718 28.1332 30.8307 28.1837C30.9434 28.2342 31.065 28.2619 31.1884 28.2654C31.4428 28.2657 31.6875 28.1684 31.8721 27.9934C32.0567 27.8185 32.1671 27.5793 32.1804 27.3254C32.3631 25.9414 32.5724 24.7147 32.7031 23.2V21.4507V19.7014C32.5204 18.3174 32.2071 17.0907 31.9978 15.6547C31.9982 15.435 31.9146 15.2234 31.7641 15.0633C31.6137 14.9032 31.4077 14.8066 31.1884 14.7934C31.0765 14.79 30.9651 14.8091 30.8607 14.8496C30.7564 14.8901 30.6612 14.9511 30.5809 15.0291C30.5005 15.107 30.4367 15.2004 30.3931 15.3035C30.3495 15.4066 30.3271 15.5174 30.3271 15.6294C30.0227 16.9905 29.7961 18.3678 29.6484 19.7547V21.5307V23.2534C29.8578 24.6374 30.1178 25.9414 30.2751 27.2987Z" />
<path fill-rule="evenodd" clip-rule="evenodd" d="M44.221 27.2987C44.2174 27.4222 44.2382 27.5451 44.2822 27.6605C44.3262 27.7759 44.3925 27.8815 44.4773 27.9713C44.5621 28.0611 44.6638 28.1333 44.7765 28.1837C44.8893 28.2342 45.0108 28.2619 45.1343 28.2654C45.3886 28.2657 45.6334 28.1684 45.818 27.9935C46.0026 27.8185 46.113 27.5794 46.1263 27.3254C46.309 25.9414 46.5183 24.7147 46.649 23.2V21.4507V19.7014C46.4663 18.3174 46.153 17.0907 45.9436 15.6547C45.9437 15.5393 45.9205 15.4251 45.8756 15.3188C45.8307 15.2125 45.7648 15.1164 45.682 15.036C45.5992 14.9557 45.501 14.8928 45.3934 14.8511C45.2858 14.8094 45.171 14.7898 45.0556 14.7934C44.9437 14.79 44.8323 14.8091 44.7279 14.8496C44.6235 14.8901 44.5284 14.9511 44.448 15.0291C44.3677 15.1071 44.3038 15.2004 44.2603 15.3035C44.2167 15.4066 44.1942 15.5174 44.1943 15.6294C43.8899 16.9905 43.6633 18.3678 43.5156 19.7547V21.5307C43.5156 22.1307 43.5156 22.68 43.6463 23.2534C43.8023 24.6374 44.0636 25.9414 44.221 27.2987Z" />
<path fill-rule="evenodd" clip-rule="evenodd" d="M36.8577 34.872C36.8647 35.1282 36.9731 35.3711 37.1591 35.5474C37.3451 35.7236 37.5935 35.8188 37.8497 35.812C37.9721 35.8088 38.0926 35.7811 38.2041 35.7304C38.3156 35.6797 38.4157 35.6071 38.4985 35.5169C38.5814 35.4267 38.6452 35.3208 38.6863 35.2054C38.7274 35.09 38.7449 34.9676 38.7377 34.8454C38.8937 32.2347 39.0777 29.6227 39.1817 27.012V23.6174V20.2494C39.051 17.6387 38.7377 15.0267 38.607 12.416C38.6071 12.1919 38.5198 11.9766 38.3638 11.8158C38.2077 11.6549 37.995 11.5613 37.771 11.5547C37.5557 11.5606 37.3504 11.647 37.1957 11.7968C37.0409 11.9467 36.9479 12.149 36.935 12.364C36.6217 14.9747 36.2817 17.5867 36.1523 20.1974V23.592V26.9867C36.335 29.624 36.6483 32.2347 36.8577 34.872Z" />
</svg>
